<?xml version="1.0" encoding="UTF-8"?><svg id="Layer_1" xmlns="http://www.w3.org/2000/svg" viewBox="0 0 1660 500"><defs><style>.cls-1,.cls-2{stroke-width:0px;}.cls-2{fill:#ccebd4;}</style></defs><path class="cls-1" d="m281.43,380.18c0,54.66,24.01,87.52,68.25,87.52,37.91,0,54.34-27.49,59.4-44.23.22-1.02,1.18-1.7,2.21-1.58h27.8c.95,0,1.58.32,1.58,1.58,0,20.85-24.96,71.09-90.99,71.09-69.51,0-99.84-47.39-99.84-114.37s36.65-114.37,99.84-114.37c68.88,0,90.99,53.71,90.99,71.09,0,1.26-.63,1.58-1.58,1.58h-27.8c-1-.01-1.88-.64-2.21-1.58-4.74-13.58-17.69-44.23-59.4-44.23-44.23,0-68.25,32.86-68.25,87.52Zm333.95,31.28c0,49.29-29.07,83.1-78.36,83.1s-78.36-33.81-78.36-83.1,28.75-83.09,78.36-83.09,78.36,33.81,78.36,83.09Zm-30.02,0c0-32.86-18.01-56.24-48.34-56.24s-48.34,23.38-48.34,56.24,18.32,56.24,48.34,56.24,48.34-23.38,48.34-56.24Zm224-83.09c-15.17,0-35.7,5.05-47.71,18.96-1.58,1.58-2.21,1.26-3.79,0-14.85-14.22-23.7-18.96-45.81-18.96-15.48,0-31.91,7.58-37.6,18.96-.63,1.26-3.16,1.9-3.79,0l-3.16-14.22c-.32-.95-.63-1.58-1.58-1.58h-23.7c-.82-.05-1.53.58-1.58,1.4,0,.06,0,.12,0,.18v156.71c-.05.82.58,1.53,1.4,1.58.06,0,.12,0,.18,0h26.86c.82.05,1.53-.58,1.58-1.4,0-.06,0-.12,0-.18v-86.88c0-24.64,8.53-47.71,35.07-47.71,30.01,0,35.39,23.06,35.39,47.71v86.88c-.04.35.07.7.32.95,0,.32.32.63.95.63h27.17c.35.04.7-.07.95-.32.39-.3.62-.77.63-1.26v-86.88c0-24.64,5.37-47.71,35.07-47.71,31.28,0,35.39,23.7,35.39,47.71v86.88c-.05.82.58,1.53,1.4,1.58.06,0,.12,0,.18,0h26.86c.82.05,1.53-.58,1.58-1.4,0-.06,0-.12,0-.18v-86.88c0-47.39-21.17-74.56-62.24-74.56Zm267.29,0c-15.17,0-35.7,5.05-47.71,18.96-1.58,1.58-2.21,1.26-3.79,0-14.85-14.22-23.7-18.96-45.81-18.96-15.48,0-31.91,7.58-37.6,18.96-.63,1.26-3.16,1.9-3.79,0l-3.16-14.22c-.32-.95-.63-1.58-1.58-1.58h-23.7c-.82-.05-1.53.58-1.58,1.4,0,.06,0,.12,0,.18v156.71c-.05.82.58,1.53,1.4,1.58.06,0,.12,0,.18,0h26.86c.82.05,1.53-.58,1.58-1.4,0-.06,0-.12,0-.18v-86.88c0-24.64,8.53-47.71,35.07-47.71,30.01,0,35.38,23.06,35.38,47.71v86.88c-.04.35.07.7.32.95,0,.32.32.63.95.63h27.17c.35.04.7-.07.95-.32.39-.3.62-.77.63-1.26v-86.88c0-24.64,5.37-47.71,35.07-47.71,31.28,0,35.39,23.7,35.39,47.71v86.88c-.05.82.58,1.53,1.4,1.58.06,0,.12,0,.18,0h26.86c.82.05,1.53-.58,1.58-1.4,0-.06,0-.12,0-.18v-86.88c0-47.39-21.17-74.56-62.24-74.56Zm241.69,83.09c0,49.29-29.07,83.1-78.36,83.1s-78.36-33.81-78.36-83.1,28.75-83.09,78.36-83.09,78.36,33.81,78.36,83.09Zm-30.02,0c0-32.86-18.01-56.24-48.34-56.24s-48.34,23.38-48.34,56.24,18.32,56.24,48.34,56.24,48.34-23.38,48.34-56.24h0Zm133.33-83.09c-21.17,0-35.07,9.79-41.39,19.27-.63.95-3.16,1.58-3.48-.32l-3.16-14.22c-.31-.95-.63-1.58-1.58-1.58h-23.7c-.82-.05-1.53.58-1.58,1.4,0,.06,0,.12,0,.18v156.71c-.05.82.58,1.53,1.4,1.58.06,0,.12,0,.18,0h26.86c.82.05,1.53-.58,1.58-1.4,0-.06,0-.12,0-.18v-86.88c0-24.64,15.17-47.71,41.71-47.71,31.28,0,42.02,23.7,42.02,47.71v86.88c-.05.82.58,1.53,1.4,1.58.06,0,.12,0,.18,0h26.86c.82.05,1.53-.58,1.58-1.4,0-.06,0-.12,0-.18v-86.88c0-41.07-23.06-74.56-68.88-74.56Zm164.29,67.61c-15.8-2.21-38.55-2.53-38.55-20.54,0-9.79,10.43-20.22,34.12-20.22,25.59,0,39.49,11.37,39.49,28.75-.05.82.58,1.53,1.4,1.58.06,0,.12,0,.18,0h27.17c.95,0,1.26-.63,1.26-1.58,0-37.28-30.65-55.61-69.51-55.61s-64.14,21.17-64.14,47.08c0,39.18,38.23,43.92,68.56,47.39,13.27,1.58,39.49,2.84,39.49,20.85,0,20.54-23.38,24.01-39.49,24.01-25.28,0-41.39-12.95-41.39-28.75-.1-.95-.94-1.65-1.89-1.58h-26.54c-.82-.05-1.53.58-1.58,1.4,0,.06,0,.12,0,.18,0,30.33,23.38,55.61,71.4,55.61,39.49,0,69.51-14.85,69.51-50.87,0-40.44-37.91-43.29-69.51-47.71h0ZM229.01,5h-51.18c-.95,0-1.58.32-2.21,1.58l-56.24,189.57c-.25.87-1.17,1.37-2.04,1.12-.54-.16-.96-.58-1.12-1.12L59.98,6.58c-.63-1.26-1.26-1.58-2.21-1.58H6.58c-.82-.05-1.53.58-1.58,1.4,0,.06,0,.12,0,.18v219.27c-.05.82.58,1.53,1.4,1.58.06,0,.12,0,.18,0h26.86c.82.05,1.53-.58,1.58-1.4,0-.06,0-.12,0-.18V36.59c0-.88.71-1.6,1.59-1.6.76,0,1.42.54,1.57,1.28l55.61,189.57c.47.97,1.45,1.58,2.53,1.58h42.97c1.08,0,2.06-.61,2.53-1.58l55.61-189.57c.32-1.58,3.16-1.9,3.16.32v189.25c-.05.82.58,1.53,1.4,1.58.06,0,.12,0,.18,0h26.86c.82.05,1.53-.58,1.58-1.4,0-.06,0-.12,0-.18V6.58c.05-.82-.58-1.53-1.4-1.58-.06,0-.12,0-.18,0Zm41.53,222.43h153.62c.82.05,1.53-.58,1.58-1.4,0-.06,0-.12,0-.18v-23.7c.05-.82-.58-1.53-1.4-1.58-.06,0-.12,0-.18,0h-123.61c-.82.05-1.53-.58-1.58-1.4,0-.06,0-.12,0-.18V6.58c.05-.82-.58-1.53-1.4-1.58-.06,0-.12,0-.18,0h-26.86c-.82-.05-1.53.58-1.58,1.4,0,.06,0,.12,0,.18v219.27c-.05.82.58,1.53,1.4,1.58.06,0,.12,0,.18,0Z"/><circle class="cls-2" cx="117.77" cy="378.62" r="67.03"/></svg>